HIERARCHY
ROOT Hips
{
  OFFSET -6.8336 87.1284 -70.2933
  CHANNELS 6 Xposition Yposition Zposition Zrotation Xrotation Yrotation
  JOINT RightUpLeg
  {
    OFFSET -8.9458 -8.66707 0.101652
    CHANNELS 3 Zrotation Xrotation Yrotation
    JOINT RightLeg
    {
      OFFSET 0 -44.4227 1.3727
      CHANNELS 3 Zrotation Xrotation Yrotation
      JOINT RightFoot
      {
        OFFSET 0.253549 -42.0924 -1.46059
        CHANNELS 3 Zrotation Xrotation Yrotation
        JOINT RightToes
        {
          OFFSET 0.04 -4.41509 8.4991
          CHANNELS 3 Zrotation Xrotation Yrotation
          End Site
          {
            OFFSET -0.08 -0.137448 9.77979
          }
        }
      }
    }
  }
  JOINT Spine
  {
    OFFSET 0 11.8905 0
    CHANNELS 3 Zrotation Xrotation Yrotation
    JOINT Spine1
    {
      OFFSET 0 25.6574 0.127663
      CHANNELS 3 Zrotation Xrotation Yrotation
      JOINT HEad
      {
        OFFSET 0 8.73416 0.011341
        CHANNELS 3 Zrotation Xrotation Yrotation
        End Site
        {
          OFFSET -0.29 12.7742 2.51395
        }
      }
      JOINT LeftShoulder1
      {
        OFFSET 8.99 -0.362252 -0.22
        CHANNELS 3 Zrotation Xrotation Yrotation
        JOINT LeftArm
        {
          OFFSET 10.2827 -0.00338 0.322123
          CHANNELS 3 Zrotation Xrotation Yrotation
          JOINT LeftForeArm
          {
            OFFSET 32.7669 0.099144 -1.42434
            CHANNELS 3 Zrotation Xrotation Yrotation
            JOINT LeftHand
            {
              OFFSET 27.5643 0.085362 1.02216
              CHANNELS 3 Zrotation Xrotation Yrotation
              End Site
              {
                OFFSET 16.7443 -0.6 1.50291
              }
            }
          }
        }
      }
      JOINT RightShoulder
      {
        OFFSET -8.99 -0.362252 -0.22
        CHANNELS 3 Zrotation Xrotation Yrotation
        JOINT RightArm
        {
          OFFSET -10.2827 -0.00338 0.322123
          CHANNELS 3 Zrotation Xrotation Yrotation
          JOINT RightForeArm
          {
            OFFSET -32.8971 0.099144 -1.42434
            CHANNELS 3 Zrotation Xrotation Yrotation
            JOINT RightHand
            {
              OFFSET -27.4921 0.085362 1.02216
              CHANNELS 3 Zrotation Xrotation Yrotation
              End Site
              {
                OFFSET -16.6312 -0.6 1.50291
              }
            }
          }
        }
      }
    }
  }
  JOINT LeftUpLeg
  {
    OFFSET 8.9458 -8.66707 0.101652
    CHANNELS 3 Zrotation Xrotation Yrotation
    JOINT LeftLeg
    {
      OFFSET 0 -44.4227 1.3727
      CHANNELS 3 Zrotation Xrotation Yrotation
      JOINT LeftFoot
      {
        OFFSET -0.253549 -42.0924 -1.46059
        CHANNELS 3 Zrotation Xrotation Yrotation
        JOINT LeftToes
        {
          OFFSET -0.04 -4.41509 8.4991
          CHANNELS 3 Zrotation Xrotation Yrotation
          End Site
          {
            OFFSET 0.08 -0.047448 9.77979
          }
        }
      }
    }
  }
}
MOTION
Frames:	22
Frame Time:	0.0166667
40.6697 90.813 -20.97 -12.034 -7.90852 -6.89324 -19.4872 -24.4958 0.981443 19.6361 32.3249 -14.3404 34.1703 38.8773 -14.2109 -35.4852 -34.8383 7.20748 1.91003 12.8222 -5.85338 3.51764 25.1446 -12.612 17.9153 -9.78837 -19.5531 0 0 -0 -74.6873 -1.45337 -79.6261 23.0533 30.6277 -117.404 -5.06501 8.96824 22.7294 25.2207 -0.286289 -3.3712 72.4551 -42.8576 43.7586 -18.924 24.2346 129.001 8.33036 8.4403 -22.8252 30.5234 -3.0042 -7.41859 -22.3277 40.4347 36.6269 19.1622 11.5246 -3.31165 58.9865 -52.3876 30.223 
39.118 90.3322 -21.6466 -11.7407 -8.91178 -5.63137 -20.3051 -23.3398 3.66737 20.1268 31.6423 -19.5651 27.1687 36.4561 -10.5712 -32.0006 -31.0337 6.45374 1.76311 13.0833 -5.9754 3.18856 25.6955 -12.806 18.4671 -9.85238 -20.1971 0 0 -0 -73.6061 -1.86183 -79.826 23.9812 29.4572 -118.594 -6.00811 8.7708 23.4975 25.808 -0.329651 -3.49712 69.2621 -42.8605 40.9412 -18.9663 23.8745 129.056 14.3198 7.03541 -25.9853 30.7417 -3.017 -8.74398 -20.1739 40.3555 35.1686 19.6213 13.6878 -3.77495 62.1576 -52.7207 33.4837 
37.5258 89.8887 -22.2504 -10.9459 -9.69413 -4.23221 -21.232 -21.8674 5.8668 19.2982 30.4647 -22.5683 23.4115 33.6803 -8.4755 -27.3871 -26.4886 6.29743 1.57258 13.2944 -5.90303 2.62437 26.1681 -12.5164 18.736 -10.566 -21.3946 -1.59028e-015 0 3.18055e-015 -72.1422 -2.16636 -79.7381 24.6979 27.7192 -120.264 -6.78725 8.59985 24.0997 26.4143 -0.42791 -3.81211 65.8293 -43.7382 38.3569 -18.5098 23.726 129.566 18.9257 5.93197 -27.1393 31.0546 -3.48402 -9.51139 -19.2332 40.3179 33.5317 19.412 16.1095 -4.16163 65.286 -53.3485 36.14 
35.8931 89.4624 -22.7439 -9.69517 -10.0945 -2.77941 -22.2172 -20.2984 7.27135 17.1992 29.0417 -22.6053 23.3388 31.7985 -8.05925 -24.3132 -23.3319 5.82854 1.28169 13.3709 -5.64008 1.87007 26.3951 -11.7969 18.5749 -11.7411 -23.0235 -1.59028e-015 -3.18055e-015 -6.36111e-015 -70.5093 -2.37278 -79.2947 24.9262 25.7426 -122.041 -7.03871 8.53514 24.4051 27.1595 -0.629226 -4.46143 62.3438 -45.3848 36.183 -17.7201 23.606 130.96 22.268 5.2657 -26.9979 31.3409 -4.43612 -9.4105 -19.184 40.5371 31.273 18.1566 17.6184 -4.14464 66.4573 -54.078 36.4362 
34.1994 89.0395 -23.1422 -8.10477 -10.1018 -1.2899 -23.2658 -18.8481 7.93015 14.6477 27.6986 -20.4496 25.5931 30.6273 -8.60227 -23.7262 -22.4241 4.91187 0.90481 13.2819 -5.26334 0.976807 26.3016 -10.8317 18.0144 -12.9856 -24.9286 -1.59028e-015 9.54166e-015 -1.59028e-015 -68.8658 -2.48773 -78.4075 24.6087 23.786 -123.624 -6.70606 8.59414 24.3983 28.0508 -0.949365 -5.4644 59.0658 -47.5593 34.6277 -16.8367 23.1545 133.432 24.9882 4.79901 -26.5629 31.5412 -5.71195 -8.57356 -19.451 40.9007 28.1021 15.6518 18.0924 -3.64995 65.6242 -54.9571 34.3423 
32.4321 88.6472 -23.5119 -6.36007 -9.82314 0.272236 -24.3917 -17.7595 8.15553 12.8696 26.8952 -18.0103 27.6663 29.0876 -8.95145 -24.7372 -23.0269 3.99425 0.560575 13.0651 -4.87931 0.0239035 25.9362 -9.84686 17.3079 -13.9403 -26.9524 -7.95139e-016 3.18055e-015 1.59028e-015 -67.3501 -2.48257 -77.0769 23.9824 22.0146 -124.852 -6.01477 8.73113 24.1406 28.9497 -1.34729 -6.66423 56.2639 -50.0176 33.8456 -16.0377 22.0186 136.734 27.4222 4.31067 -26.4973 31.7179 -7.03998 -7.47877 -19.6253 40.9498 24.1707 12.15 18.1723 -2.86318 63.964 -55.9904 31.0991 
30.6033 88.3319 -23.9388 -4.66466 -9.41072 1.96798 -25.567 -17.2312 8.18 12.7426 27.0166 -17.1334 27.2352 26.6504 -8.22283 -25.773 -23.7697 3.43161 0.437713 12.8065 -4.58305 -0.885586 25.45 -9.01861 16.7915 -14.5101 -28.9642 7.95139e-016 0 -0 -66.1193 -2.31639 -75.4933 23.3701 20.6308 -125.647 -5.26213 8.88061 23.7828 29.6589 -1.73915 -7.81248 54.2847 -52.7748 33.9571 -15.3902 20.1874 140.299 29.3812 3.78844 -26.8991 31.9782 -8.23354 -6.63721 -19.644 40.2637 19.8438 8.09749 18.4661 -1.96839 62.3496 -57.064 27.8144 
28.7288 88.1364 -24.4758 -3.13465 -8.98509 3.84202 -26.7027 -17.1851 7.88496 14.1454 27.8581 -18.3582 23.8736 23.7979 -6.58327 -25.9347 -23.8228 3.18882 0.581412 12.59 -4.41837 -1.67741 25.0225 -8.44225 16.6639 -14.8785 -30.8799 -3.18055e-015 6.36111e-015 -0 -65.3181 -2.00363 -73.9927 22.9859 19.8666 -125.987 -4.70026 8.98869 23.5216 30.0119 -2.03713 -8.69052 53.7689 -56.2717 35.269 -14.8262 18.3179 143.514 30.4721 3.37145 -27.5266 32.3469 -9.26791 -6.29796 -19.6065 38.7902 15.2793 3.65786 18.767 -0.968751 60.0152 -57.8499 24.0173 
26.8341 88.0821 -25.1217 -1.76882 -8.58217 5.87436 -27.6679 -17.3482 7.02728 16.022 28.8474 -20.8774 19.057 21.4373 -4.84089 -25.499 -23.3865 3.09848 0.863398 12.4611 -4.38051 -2.32718 24.7738 -8.14408 16.9132 -15.2968 -32.6543 -1.59028e-015 3.18055e-015 -1.59028e-015 -65.0096 -1.61664 -72.8715 22.9234 19.8204 -125.911 -4.52364 9.02008 23.4829 29.9115 -2.1839 -9.17694 55.7874 -61.0248 38.5484 -14.2111 17.5083 145.918 30.4686 3.18345 -28.1735 32.7219 -10.2146 -6.31814 -19.4663 36.8387 10.4034 -1.19768 18.1517 0.143961 55.1773 -57.7951 18.1132 
24.9814 88.1833 -25.842 -0.523582 -8.16409 7.96088 -28.3462 -17.5544 5.71051 17.222 29.6642 -23.5378 14.7608 20.1499 -3.57453 -25.1727 -23.1055 3.1479 1.16133 12.4184 -4.44538 -2.82974 24.7173 -8.10603 17.3895 -15.878 -34.2511 9.93923e-016 3.18055e-015 -3.97569e-016 -65.1453 -1.20722 -72.2174 23.1717 20.3935 -125.521 -4.79295 8.96696 23.648 29.3387 -2.16927 -9.26049 61.945 -66.8357 45.3441 -13.5169 18.3741 147.245 29.5653 3.19274 -28.8654 32.9 -11.0865 -6.26249 -18.8846 34.7811 5.2058 -6.23382 15.8753 1.16438 47.2627 -56.1958 9.61581 
23.2662 88.4531 -26.6042 0.599708 -7.68617 9.93938 -28.7142 -17.8011 4.48004 17.3855 30.2192 -25.7242 12.19 19.8208 -2.91273 -25.1042 -23.139 3.39911 1.46848 12.4275 -4.59608 -3.15627 24.7839 -8.29939 17.8907 -16.5656 -35.5965 4.96962e-016 -3.18055e-015 -0 -65.5816 -0.778487 -71.876 23.5684 21.3496 -124.94 -5.36712 8.85714 23.8866 28.282 -2.00284 -8.95651 74.322 -72.4113 57.919 -12.9165 20.3143 147.432 28.4007 3.20448 -29.817 32.6619 -11.7628 -5.71644 -17.4457 32.802 0.0149084 -10.8222 12.1183 1.7758 38.227 -52.6815 0.540461 
21.7791 88.8981 -27.3963 1.52957 -7.15453 11.6255 -28.8343 -18.1048 3.9369 17.0211 30.369 -27.4163 11.2689 19.7904 -2.68799 -24.6074 -22.8556 3.86196 1.80737 12.4439 -4.81854 -3.24666 24.8754 -8.69589 18.2286 -17.2293 -36.5771 1.3418e-015 3.18055e-015 4.47266e-016 -66.1357 -0.344638 -71.5395 23.8127 22.3924 -124.29 -5.96228 8.74622 24.04 26.6896 -1.6896 -8.23564 93.282 -76.1383 76.8408 -12.6847 21.9779 146.697 27.7144 2.98894 -31.2414 31.9032 -12.0697 -4.6073 -15.0886 30.8889 -4.4201 -14.1233 7.9408 1.86138 30.8712 -48.0671 -6.30965 
20.574 89.5207 -28.2234 2.16575 -6.61874 12.8306 -28.7616 -18.4632 4.25464 16.7734 29.9716 -28.6473 11.1833 19.3625 -2.62828 -22.7961 -21.3813 4.45598 2.13017 12.4332 -5.06883 -3.0436 24.8987 -9.2181 18.2611 -17.7624 -37.1283 -1.56543e-015 6.36111e-015 -4.96962e-016 -66.6601 0.0650946 -70.9049 23.6232 23.2445 -123.685 -6.28263 8.695 23.9752 24.635 -1.2845 -7.17604 114.021 -77.5106 97.5221 -13.0557 22.6034 145.48 27.929 2.42595 -33.11 30.7265 -11.9272 -3.28839 -12.309 29.0823 -7.08094 -15.4194 4.39142 1.5853 26.2272 -43.8531 -10.0379 
19.6722 90.3026 -29.0989 2.43917 -6.11209 13.3726 -28.4999 -18.9351 4.99047 16.6536 29.0612 -29.0519 11.5534 18.5162 -2.63587 -19.6943 -18.6286 4.96846 2.36003 12.3762 -5.25498 -2.53441 24.7797 -9.68976 17.8815 -18.131 -37.3248 -3.23025e-016 3.18055e-015 4.47266e-016 -67.0717 0.481129 -69.8261 22.875 23.7227 -123.217 -6.1292 8.74495 23.5887 22.4371 -0.912101 -6.10211 130.605 -77.075 114.385 -14.2182 22.5232 144.163 28.8803 1.60294 -35.0851 29.3965 -11.4089 -2.3207 -9.87769 27.6716 -7.05656 -14.4793 1.90995 1.18732 23.671 -40.7621 -11.4773 
19.0801 91.1756 -30.0353 2.33113 -5.60926 13.1027 -28.024 -19.655 5.34557 16.0543 27.8358 -28.0089 12.8413 18.1821 -2.89627 -16.5514 -15.7243 5.23255 2.47064 12.2583 -5.27188 -1.77139 24.4735 -9.8933 17.0434 -18.3731 -37.3161 -1.2424e-016 -9.54166e-015 5.71506e-016 -67.336 0.970486 -68.3556 21.6073 23.7861 -122.959 -5.46077 8.89991 22.8164 20.4092 -0.656753 -5.3267 140.506 -75.4544 125.228 -16.3756 22.2766 142.875 29.8532 0.801542 -36.8115 28.1898 -10.6872 -2.10061 -8.40119 27.0349 -4.05959 -11.606 0.76655 0.836065 22.5154 -38.9295 -11.585 
18.7833 92.0132 -31.0289 1.86582 -5.04104 11.9711 -27.3136 -20.7396 4.76896 14.4916 26.4453 -25.2065 15.6218 19.5085 -3.70199 -14.9012 -14.1855 5.35552 2.4997 12.0613 -5.0679 -0.84956 23.9756 -9.69538 15.8153 -18.571 -37.1734 -9.93923e-017 -6.36111e-015 1.98785e-016 -67.4707 1.52741 -66.6898 20.0011 23.5264 -122.985 -4.40064 9.12217 21.6858 18.5429 -0.490045 -4.81584 143.904 -73.4017 130.258 -19.6881 21.8362 141.451 30.066 0.29333 -38.2725 27.3093 -9.94558 -2.67914 -8.19409 27.3301 1.386 -7.47157 1.41351 0.568146 22.7198 -38.763 -10.8038 
18.7215 92.6649 -32.0429 1.12311 -4.34776 10.1059 -26.3768 -22.1666 3.39975 12.1583 24.911 -20.9841 19.7867 22.639 -5.23265 -15.3883 -14.6885 5.51624 2.50784 11.7773 -4.6831 0.13521 23.3299 -9.11588 14.3641 -18.811 -36.8561 5.96354e-016 6.36111e-015 1.59028e-015 -67.5301 2.03095 -65.1035 18.3311 23.0903 -123.344 -3.16453 9.35458 20.353 16.453 -0.3156 -4.19722 142.538 -71.8206 130.897 -24.1677 20.8071 139.432 29.1707 0.145709 -39.7735 26.8683 -9.30301 -3.85796 -9.35588 28.4285 8.22465 -2.96274 3.95782 0.26057 24.3561 -40.4027 -9.28529 
18.7815 93.0262 -33.0158 0.239543 -3.54597 7.81508 -25.2426 -23.7808 1.89798 9.69573 23.4507 -16.1519 24.4499 26.4433 -7.30838 -17.5738 -16.8294 5.71067 2.54784 11.4367 -4.22607 1.09112 22.6334 -8.30582 12.8969 -19.1217 -36.3074 -7.95139e-016 -9.54166e-015 3.97569e-016 -67.5247 2.28493 -63.8647 16.8571 22.5734 -124.011 -1.97186 9.55105 19.0624 13.6486 -0.0617647 -3.01976 138.286 -71.3791 128.557 -29.6562 19.1886 136.161 27.3859 0.226804 -41.6769 26.8381 -8.75413 -5.30236 -11.724 30.0384 15.3633 1.14912 7.78735 -0.216762 27.0298 -43.0898 -7.18314 
18.8072 93.053 -33.877 -0.623201 -2.7572 5.47892 -23.9835 -25.449 0.976692 7.65754 22.765 -11.7056 28.3844 29.5357 -9.30644 -20.7296 -19.8893 5.82231 2.63498 11.1214 -3.78826 1.90806 22.0099 -7.46077 11.616 -19.4314 -35.561 -3.97569e-016 0 -0 -67.4102 2.11864 -63.1556 15.7404 22.0228 -124.877 -1.01802 9.68815 18.0595 10.0815 0.227602 -1.126 131.813 -72.1815 123.762 -35.7945 17.9037 130.985 25.3382 0.315238 -44.1572 27.07 -8.18892 -6.66038 -14.8763 31.8764 22.2271 4.54643 11.9484 -0.862469 30.0597 -45.8219 -4.79756 
18.694 92.7777 -34.6211 -1.30548 -2.19037 3.4915 -22.802 -26.8121 1.07905 6.31106 23.1581 -8.77043 30.5627 31.4563 -10.5785 -24.3655 -23.3109 5.64463 2.71311 10.8839 -3.42488 2.46583 21.5302 -6.73212 10.6624 -19.5886 -34.7899 -3.97569e-016 -6.36111e-015 -1.59028e-015 -67.1771 1.50971 -63.0441 15.0383 21.5355 -125.762 -0.449489 9.7616 17.4862 6.40277 0.43067 1.12893 121.222 -73.8308 115.157 -41.7227 18.4186 123.336 23.779 0.218763 -46.9368 27.3672 -7.46696 -7.74718 -18.3544 33.6644 28.899 7.46572 15.671 -1.62536 32.9828 -48.1178 -2.4025 
18.3989 92.2548 -35.2948 -1.70368 -2.04849 2.20319 -21.9453 -27.3567 2.1728 5.75235 24.2157 -8.15241 30.6231 32.3966 -10.8583 -28.081 -26.5496 4.91899 2.70154 10.7135 -3.17358 2.6929 21.1772 -6.20459 10.0779 -19.4445 -34.2376 -7.95139e-016 0 -0 -66.8956 0.63417 -63.4809 14.731 21.2671 -126.472 -0.323937 9.77735 17.328 3.55069 0.503671 3.08834 55.599 -69.2626 56.6166 -44.3675 11.3158 99.3983 25.2327 -0.80389 -48.5064 27.6033 -6.50952 -8.53708 -21.7266 35.1739 35.5135 10.2713 18.5218 -2.47069 35.7483 -49.9087 0.0869828 
17.9028 91.5176 -35.9329 -1.83008 -2.39648 1.79719 -21.5158 -26.9039 3.77366 5.95685 25.4079 -9.66926 28.8392 32.3821 -10.1927 -31.3809 -29.0687 3.65759 2.60272 10.5866 -3.0505 2.62432 20.8959 -5.93261 9.82593 -18.9874 -34.0444 0 0 -1.59028e-015 -66.6752 -0.23906 -64.3219 14.7507 21.3321 -126.915 -0.611277 9.74304 17.4989 2.19819 0.515679 4.20076 25.4074 -51.4823 35.0448 -43.7107 4.6626 70.6671 28.0243 -1.48521 -46.7365 27.7811 -5.31493 -8.99442 -24.471 36.2744 41.6563 12.9496 20.3033 -3.29999 38.4473 -51.0187 3.13842 
